<?xml version="1.0" encoding="iso-8859-1"?>
<!-- Generator: Adobe Illustrator 19.0.0, SVG Export Plug-In . SVG Version: 6.00 Build 0)  -->
<svg version="1.1" id="Layer_1" xmlns="http://www.w3.org/2000/svg" xmlns:xlink="http://www.w3.org/1999/xlink" x="0px" y="0px"
	 viewBox="0 0 512 512" style="enable-background:new 0 0 512 512;" xml:space="preserve">
<path style="fill:#E07188;" d="M435.2,12.8H76.8L0,89.6l256,256l256-256L435.2,12.8z M256,192l-89.6-89.6h179.2L256,192z"/>
<polygon style="fill:#C5142C;" points="76.8,12.8 166.4,102.4 435.2,102.4 435.2,12.8 "/>
<rect x="329.686" y="14.089" transform="matrix(-0.7071 -0.7071 0.7071 -0.7071 555.9498 511.8845)" style="fill:#E02753;" width="108.607" height="253.425"/>
<circle style="fill:#F8E99B;" cx="256" cy="384" r="115.2"/>
<path style="fill:#F6E27D;" d="M256,268.8v230.4c63.622,0,115.2-51.578,115.2-115.2S319.622,268.8,256,268.8z"/>
<path style="fill:#F2D23D;" d="M256,441.6c-31.761,0-57.6-25.838-57.6-57.6s25.839-57.6,57.6-57.6c31.762,0,57.6,25.838,57.6,57.6
	S287.762,441.6,256,441.6z M256,364.8c-10.587,0-19.2,8.612-19.2,19.2s8.613,19.2,19.2,19.2s19.2-8.612,19.2-19.2
	S266.587,364.8,256,364.8z"/>
<g>
</g>
<g>
</g>
<g>
</g>
<g>
</g>
<g>
</g>
<g>
</g>
<g>
</g>
<g>
</g>
<g>
</g>
<g>
</g>
<g>
</g>
<g>
</g>
<g>
</g>
<g>
</g>
<g>
</g>
</svg>
