<?xml version="1.0" encoding="iso-8859-1"?>
<!-- Generator: Adobe Illustrator 19.0.0, SVG Export Plug-In . SVG Version: 6.00 Build 0)  -->
<svg version="1.1" id="Layer_1" xmlns="http://www.w3.org/2000/svg" xmlns:xlink="http://www.w3.org/1999/xlink" x="0px" y="0px"
	 viewBox="0 0 480 480" style="enable-background:new 0 0 480 480;" xml:space="preserve">
<path style="fill:#BD852D;" d="M472,240v16c0,8.8-7.328,16-16.28,16H24.28C15.328,272,8,264.8,8,256v-16H472z"/>
<path style="fill:#CA9D57;" d="M40,256v-16H8v16c0,8.8,7.2,16,16,16h32C47.2,272,40,264.8,40,256z"/>
<path style="fill:#132C47;" d="M455.72,280H24.28C10.888,280,0,269.232,0,256v-16c0-4.424,3.576-8,8-8h464c4.424,0,8,3.576,8,8v16
	C480,269.232,469.112,280,455.72,280z M16,248v8c0,4.416,3.72,8,8.28,8h431.44c4.56,0,8.28-3.584,8.28-8v-8H16z"/>
<rect x="176" y="392" style="fill:#BB5B64;" width="144" height="80"/>
<rect x="176" y="392" style="fill:#C97C83;" width="24" height="80"/>
<path style="fill:#FEDDE0;" d="M360,272v16c0,8.8-7.2,16-16,16h-8l-32,48v40H192v-40l-24-32l-68.56-20.56
	C92.64,297.36,88,291.2,88,284.08V272l92,0.96l43.36,36.16c3.04,2.48,6.8,3.84,10.64,3.76l31.6-0.72c4.08-0.08,8-1.76,10.96-4.72
	L312,272H360z"/>
<path style="fill:#DBEDF1;" d="M427.28,172.72c2.96,2.88,4.72,6.88,4.72,11.28c0,8.8-7.2,16-16,16h-24l-16.4,40H112.64L88,200H64
	c-8.8,0-16-7.2-16-16s7.2-16,16-16h352C420.4,168,424.4,169.76,427.28,172.72z"/>
<path style="fill:#E4F1F4;" d="M96,200c-8.8,0-16-7.2-16-16s7.2-16,16-16H64c-8.8,0-16,7.2-16,16s7.2,16,16,16h24l24.64,40h32
	L120,200H96z"/>
<path style="fill:#FCB23C;" d="M408,164H216c0-53.04,42.96-96,96-96S408,110.96,408,164z"/>
<path style="fill:#FDC163;" d="M312,100c43.296,0,79.848,28,91.832,68H408c0-56-42.96-96-96-96s-96,40-96,96h4.168
	C232.152,128,268.704,100,312,100z"/>
<path style="fill:#F85766;" d="M360,8v24c0,4.4-3.6,8-8,8h-40V16c0-4.4,3.6-8,8-8H360z"/>
<path style="fill:#132C47;" d="M320,60.408V48h32c8.824,0,16-7.176,16-16V8c0-4.424-3.576-8-8-8h-40c-8.824,0-16,7.176-16,16v16v8
	v20.408C250.392,64.52,208,111.36,208,166c0,4.424,3.576,10,8,10h192c4.424,0,8-5.576,8-10C416,111.36,373.608,64.52,320,60.408z
	 M320,16h31.992l-0.016,16H320V16z M224.36,160c4.056-48,41.808-80,87.64-80s83.584,32,87.64,80H224.36z"/>
<g>
	<circle style="fill:#FEF0D8;" cx="296" cy="128" r="8"/>
	<circle style="fill:#FEF0D8;" cx="328" cy="104" r="8"/>
</g>
<g>
	<path style="fill:#132C47;" d="M433.016,167.144C428.528,162.528,422.496,160,416,160H64c-13.232,0-24,10.768-24,24
		s10.768,24,24,24h19.528l22.296,36.192c1.464,2.368,4.04,3.808,6.816,3.808H375.6c3.248,0,6.168-1.96,7.4-4.968L397.368,208H416
		c13.232,0,24-10.768,24-24C440,177.504,437.472,171.472,433.016,167.144z M416,192h-24c-3.248,0-6.168,1.96-7.4,4.968L370.232,232
		h-253.12l-14.784-24H136c4.424,0,8-3.576,8-8s-3.576-8-8-8H88H64c-4.416,0-8-3.584-8-8s3.584-8,8-8h352
		c2.136,0,4.112,0.824,5.704,2.456c1.472,1.432,2.296,3.408,2.296,5.544C424,188.416,420.416,192,416,192z"/>
	<path style="fill:#132C47;" d="M184,192h-16c-4.424,0-8,3.576-8,8s3.576,8,8,8h16c4.424,0,8-3.576,8-8S188.424,192,184,192z"/>
</g>
<path style="fill:#FEDDE0;" d="M248,164H80c0-46.4,37.6-84,84-84S248,117.6,248,164z"/>
<path style="fill:#FEEBEC;" d="M180,98c19.12,0,36.68,5.456,50.792,16.208C215.448,94.064,191.28,82.504,164,82.504
	C117.6,82.496,80,120,80,168h17.56C105.04,128,139.08,98,180,98z"/>
<path style="fill:#F85766;" d="M208,164h-88c0-24.32,19.68-44,44-44S208,139.68,208,164z"/>
<g>
	<path style="fill:#132C47;" d="M164,72c-50.728,0-92,43.272-92,94c0,4.424,3.576,10,8,10h40h88h40c4.424,0,8-5.576,8-10
		C256,115.272,214.728,72,164,72z M128.896,160c3.648-24,18-28,35.104-28s31.456,4,35.104,28H128.896z M215.32,160
		c-3.872-32-25.376-44-51.32-44s-47.448,12-51.32,44H88.424C92.432,120,124.8,92,164,92s71.568,28,75.576,68H215.32z"/>
	<path style="fill:#132C47;" d="M360,264h-48c-2.128,0-4.16,0.84-5.656,2.344l-35.44,35.44c-1.496,1.496-3.432,2.336-5.496,2.376
		l-31.576,0.728c-1.96-0.056-3.832-0.656-5.352-1.904l-43.36-36.16c-1.416-1.184-3.192-1.832-5.04-1.856L88.088,264
		c-2.016,0.088-4.184,0.808-5.712,2.312S80,269.864,80,272v12.08c0,10.632,6.872,19.88,17.144,23.024l66.04,19.808L184,354.664V384
		h-8c-4.424,0-8,3.576-8,8v80c0,4.424,3.576,8,8,8h144c4.424,0,8-3.576,8-8v-80c0-4.424-3.576-8-8-8h-8v-29.576L340.28,312H344
		c13.232,0,24-10.768,24-24v-16C368,267.576,364.424,264,360,264z M312,464H184v-64h8h24v24c0,4.424,3.576,8,8,8s8-3.576,8-8v-24h32
		v24c0,4.424,3.576,8,8,8s8-3.576,8-8v-24h24h8V464z M352,288c0,4.416-3.584,8-8,8h-8c-2.672,0-5.168,1.336-6.656,3.56l-32,48
		c-0.872,1.312-1.344,2.864-1.344,4.44v32h-96v-32c0-1.736-0.56-3.416-1.6-4.8l-24-32c-1.024-1.376-2.464-2.376-4.104-2.864
		l-68.52-20.544C98.32,290.736,96,287.632,96,284.08v-3.992l81.064,0.84l41.232,34.384c4.536,3.712,10.24,5.544,15.888,5.568
		l31.568-0.728c6.176-0.12,12.024-2.624,16.464-7.064L315.312,280H352V288z"/>
</g>
<g>
</g>
<g>
</g>
<g>
</g>
<g>
</g>
<g>
</g>
<g>
</g>
<g>
</g>
<g>
</g>
<g>
</g>
<g>
</g>
<g>
</g>
<g>
</g>
<g>
</g>
<g>
</g>
<g>
</g>
</svg>
