<?xml version="1.0" encoding="UTF-8" standalone="no"?>
<svg
   xmlns:dc="http://purl.org/dc/elements/1.1/"
   xmlns:cc="http://creativecommons.org/ns#"
   xmlns:rdf="http://www.w3.org/1999/02/22-rdf-syntax-ns#"
   xmlns:svg="http://www.w3.org/2000/svg"
   xmlns="http://www.w3.org/2000/svg"
   viewBox="0 0 133.33333 133.33333"
   height="133.33333"
   width="133.33333"
   xml:space="preserve"
   id="svg2"
   version="1.1"><metadata
     id="metadata8"><rdf:RDF><cc:Work
         rdf:about=""><dc:format>image/svg+xml</dc:format><dc:type
           rdf:resource="http://purl.org/dc/dcmitype/StillImage" /></cc:Work></rdf:RDF></metadata><defs
     id="defs6"><clipPath
       id="clipPath18"
       clipPathUnits="userSpaceOnUse"><path
         id="path16"
         d="M 0,100 H 100 V 0 H 0 Z" /></clipPath></defs><g
     transform="matrix(1.3333333,0,0,-1.3333333,0,133.33333)"
     id="g10"><g
       id="g12"><g
         clip-path="url(#clipPath18)"
         id="g14"><g
           transform="translate(50,55.2998)"
           id="g20"><path
             id="path22"
             style="fill:#ffffff;fill-opacity:1;fill-rule:nonzero;stroke:none"
             d="m 0,0 c 4.2,0 7.6,-3.4 7.6,-7.6 0,-4.2 -3.4,-7.6 -7.6,-7.6 -4.2,0 -7.6,3.4 -7.6,7.6 0,4.2 3.4,7.6 7.6,7.6 m 19.9,-0.5 c 3.9,0 7.1,-3.2 7.1,-7.1 0,-3.9 -3.2,-7.1 -7.1,-7.1 -3.9,0 -7.1,3.2 -7.1,7.1 0,4 3.2,7.1 7.1,7.1 M 0,-16.899 c 4.9,0 8.8,3.599 9.3,8.299 h 1.9 c 0.5,-4.4 4.3,-7.7 8.7,-7.7 4.9,0 8.8,3.901 8.8,8.8 0,4.9 -3.9,8.8 -8.8,8.8 -4.4,0 -8.1,-3.3 -8.7,-7.5 H 9.3 C 8.7,-1.6 4.8,1.9 0,1.9 c -4.2,0 -7.7,-2.7 -8.9,-6.4 h -5.7 C -7.8,2.2 -9.2,13 -9.2,13 H 24 v 25.1 l -6.7,-9.4 v 9.5 L 10.5,29 v 9.2 L 4.6,29.4 H -28.7 V 12.9 -9.899 c 1.4,0 2.8,0.199 3.9,0.399 v -14.6 c 0,0 5.8,-4.9 15.6,-11.5 l 21.8,-13.2 8.5,17.5 c 0.4,0.8 0.8,1.6 1.2,2.3 1.1,2.7 1.5,5.2 1.5,6.7 v 2.7 l -5.1,-7.6 H 4.8 l -21.9,13 -2.5,6.4 c 0.3,0.1 0.4,0.3 0.7,0.3 l 0.5,0.3 h 9 v -0.3 c 0,-5.3 4.2,-9.399 9.4,-9.399" /></g></g></g></g></svg>